<svg t="1722349436669" class="icon" viewBox="0 0 1024 1024" version="1.1" xmlns="http://www.w3.org/2000/svg" p-id="4248" width="256" height="256"><path d="M86.4 198.4h44.8c12.4 0 22.4 10.1 22.4 22.4v44.8c0 12.4-10 22.4-22.4 22.4H86.4C74 288 64 278 64 265.6v-44.8c0-12.3 10-22.4 22.4-22.4zM355.2 198.4h582.4c12.4 0 22.4 10.1 22.4 22.4v44.8c0 12.4-10 22.4-22.4 22.4H355.2c-12.4 0-22.4-10-22.4-22.4v-44.8c0-12.3 10-22.4 22.4-22.4zM86.4 736h44.8c12.4 0 22.4 10.1 22.4 22.4v44.8c0 12.4-10 22.4-22.4 22.4H86.4c-12.4 0-22.4-10-22.4-22.4v-44.8c0-12.3 10-22.4 22.4-22.4zM355.2 736h582.4c12.4 0 22.4 10.1 22.4 22.4v44.8c0 12.4-10 22.4-22.4 22.4H355.2c-12.4 0-22.4-10-22.4-22.4v-44.8c0-12.3 10-22.4 22.4-22.4zM86.4 467.2h44.8c12.4 0 22.4 10.1 22.4 22.4v44.8c0 12.4-10 22.4-22.4 22.4H86.4c-12.4 0-22.4-10-22.4-22.4v-44.8c0-12.3 10-22.4 22.4-22.4zM355.2 467.2h582.4c12.4 0 22.4 10.1 22.4 22.4v44.8c0 12.4-10 22.4-22.4 22.4H355.2c-12.4 0-22.4-10-22.4-22.4v-44.8c0-12.3 10-22.4 22.4-22.4z" p-id="4249" fill="#11254a"></path></svg>